<svg width="100" height="24" viewBox="0 0 100 24" fill="none" xmlns="http://www.w3.org/2000/svg">
<path d="M40.5 14C40.5 20.6274 18.6274 24 12 24C5.37258 24 0 18.6274 0 12C0 5.37258 5.37258 0 12 0C18.6274 0 40.5 7.37258 40.5 14Z" fill="#FFE872"/>
<path d="M3.216 5.472H8.745C10.2397 5.472 11.5253 5.74433 12.602 6.289C13.6913 6.821 14.521 7.59367 15.091 8.607C15.6737 9.62033 15.965 10.8237 15.965 12.217C15.965 13.623 15.68 14.839 15.11 15.865C14.54 16.8783 13.7103 17.6573 12.621 18.202C11.5443 18.734 10.2523 19 8.745 19H3.216V5.472ZM8.498 16.15C9.81533 16.15 10.797 15.827 11.443 15.181C12.1017 14.5223 12.431 13.5343 12.431 12.217C12.431 9.62033 11.12 8.322 8.498 8.322H6.788V16.15H8.498ZM29.9348 9.348V19H26.5527V17.689C26.2741 18.145 25.8687 18.506 25.3367 18.772C24.8047 19.0253 24.2221 19.152 23.5888 19.152C22.7654 19.152 22.0307 18.9493 21.3847 18.544C20.7387 18.1387 20.2321 17.5623 19.8647 16.815C19.5101 16.055 19.3327 15.181 19.3327 14.193C19.3327 13.1923 19.5164 12.3057 19.8837 11.533C20.2511 10.7603 20.7577 10.1587 21.4037 9.728C22.0497 9.29733 22.7781 9.082 23.5888 9.082C24.2221 9.082 24.7984 9.22133 25.3177 9.5C25.8497 9.766 26.2614 10.127 26.5527 10.583V9.348H29.9348ZM24.6527 16.587C25.2608 16.587 25.7294 16.378 26.0588 15.96C26.3881 15.542 26.5527 14.9403 26.5527 14.155C26.5527 13.357 26.3881 12.749 26.0588 12.331C25.7294 11.9003 25.2608 11.685 24.6527 11.685C24.0574 11.685 23.5887 11.9067 23.2467 12.35C22.9047 12.7807 22.7337 13.395 22.7337 14.193C22.7337 14.9657 22.8984 15.561 23.2277 15.979C23.5571 16.3843 24.0321 16.587 24.6527 16.587ZM40.3387 9.082C41.4787 9.082 42.3274 9.43033 42.8847 10.127C43.4547 10.811 43.7397 11.8497 43.7397 13.243V19H40.3007V13.395C40.3007 12.7997 40.1994 12.3753 39.9967 12.122C39.7941 11.856 39.4774 11.723 39.0467 11.723C38.5274 11.723 38.1094 11.9003 37.7927 12.255C37.4761 12.597 37.3177 13.053 37.3177 13.623V19H33.8787V12.122C33.8787 11.0833 33.8281 10.1587 33.7267 9.348H36.9567L37.1277 10.773C37.4951 10.2283 37.9511 9.81033 38.4957 9.519C39.0404 9.22767 39.6547 9.082 40.3387 9.082ZM59.5742 19.152C57.9402 19.152 56.6608 18.7087 55.7362 17.822C54.8115 16.9353 54.3492 15.7257 54.3492 14.193C54.3492 13.1797 54.5708 12.2867 55.0142 11.514C55.4702 10.7413 56.1035 10.146 56.9142 9.728C57.7248 9.29733 58.6622 9.082 59.7262 9.082C60.4355 9.082 61.1322 9.18967 61.8162 9.405C62.5002 9.60767 63.0448 9.88633 63.4502 10.241L62.5762 12.616C62.2342 12.3373 61.8352 12.1157 61.3792 11.951C60.9232 11.7863 60.4862 11.704 60.0682 11.704C59.3588 11.704 58.8142 11.9067 58.4342 12.312C58.0542 12.7173 57.8642 13.319 57.8642 14.117C57.8642 14.9277 58.0542 15.542 58.4342 15.96C58.8142 16.3653 59.3652 16.568 60.0872 16.568C60.5052 16.568 60.9358 16.4857 61.3792 16.321C61.8352 16.1563 62.2342 15.9347 62.5762 15.656L63.4502 17.993C63.0322 18.3603 62.4748 18.6453 61.7782 18.848C61.0942 19.0507 60.3595 19.152 59.5742 19.152ZM71.3285 19.152C70.2518 19.152 69.3145 18.9493 68.5165 18.544C67.7185 18.1387 67.1041 17.556 66.6735 16.796C66.2428 16.036 66.0275 15.143 66.0275 14.117C66.0275 13.091 66.2428 12.198 66.6735 11.438C67.1041 10.678 67.7185 10.0953 68.5165 9.69C69.3145 9.28467 70.2518 9.082 71.3285 9.082C72.3925 9.082 73.3171 9.291 74.1025 9.709C74.9005 10.1143 75.5148 10.697 75.9455 11.457C76.3761 12.2043 76.5915 13.091 76.5915 14.117C76.5915 15.143 76.3761 16.036 75.9455 16.796C75.5148 17.5433 74.9005 18.126 74.1025 18.544C73.3171 18.9493 72.3925 19.152 71.3285 19.152ZM71.3285 16.587C72.5698 16.587 73.1905 15.7637 73.1905 14.117C73.1905 13.281 73.0321 12.6667 72.7155 12.274C72.4115 11.8687 71.9491 11.666 71.3285 11.666C70.6951 11.666 70.2201 11.8687 69.9035 12.274C69.5868 12.6667 69.4285 13.281 69.4285 14.117C69.4285 14.9657 69.5868 15.5927 69.9035 15.998C70.2201 16.3907 70.6951 16.587 71.3285 16.587Z" fill="black"/>
<path d="M51.0172 15.466V19H47.4262V15.466H51.0172Z" fill="#1DB8E9"/>
</svg>
